<?xml version="1.0" encoding="utf-8"?>
<!-- Generator: Adobe Illustrator 16.0.0, SVG Export Plug-In . SVG Version: 6.00 Build 0)  -->
<!DOCTYPE svg PUBLIC "-//W3C//DTD SVG 1.1//EN" "http://www.w3.org/Graphics/SVG/1.1/DTD/svg11.dtd">
<svg version="1.1" id="slide_1" xmlns="http://www.w3.org/2000/svg" xmlns:xlink="http://www.w3.org/1999/xlink" x="0px" y="0px"
	 width="444px" height="120px" viewBox="0 0 444 120" enable-background="new 0 0 444 120" xml:space="preserve">
<g>
	<path fill="#FFFFFF" d="M173.968,64.27c0.7,0.66,1.5,1.195,2.399,1.605c0.9,0.41,1.811,0.615,2.73,0.615
		c1.1,0,1.945-0.23,2.535-0.691c0.59-0.459,0.885-1.068,0.885-1.83c0-0.398-0.075-0.738-0.225-1.02
		c-0.15-0.279-0.36-0.525-0.63-0.734c-0.271-0.211-0.596-0.404-0.976-0.586c-0.38-0.18-0.79-0.359-1.229-0.539l-2.67-1.17
		c-0.48-0.199-0.96-0.451-1.44-0.75c-0.48-0.301-0.905-0.66-1.275-1.08s-0.67-0.91-0.899-1.471c-0.23-0.559-0.345-1.199-0.345-1.92
		c0-0.779,0.164-1.504,0.494-2.174s0.785-1.256,1.365-1.756s1.27-0.889,2.07-1.17c0.8-0.279,1.68-0.42,2.64-0.42
		c1.16,0,2.27,0.225,3.33,0.676c1.06,0.449,1.97,1.055,2.73,1.814l-1.801,2.221c-0.62-0.521-1.274-0.932-1.965-1.23
		c-0.689-0.301-1.455-0.451-2.295-0.451c-0.94,0-1.685,0.205-2.234,0.615c-0.551,0.41-0.825,0.975-0.825,1.695
		c0,0.381,0.085,0.705,0.255,0.975c0.17,0.271,0.399,0.51,0.689,0.721c0.29,0.209,0.625,0.4,1.006,0.57
		c0.379,0.17,0.77,0.334,1.17,0.494l2.64,1.111c0.58,0.238,1.114,0.52,1.605,0.84c0.489,0.32,0.909,0.689,1.26,1.109
		c0.35,0.42,0.619,0.904,0.81,1.455s0.285,1.186,0.285,1.904c0,0.801-0.16,1.551-0.479,2.25c-0.32,0.701-0.785,1.316-1.396,1.846
		s-1.35,0.949-2.22,1.26s-1.855,0.465-2.955,0.465c-1.32,0-2.591-0.25-3.811-0.75s-2.3-1.209-3.239-2.129L173.968,64.27z"/>
	<path fill="#FFFFFF" d="M187.917,65.199c0-1.58,0.69-2.799,2.07-3.66c1.38-0.859,3.58-1.459,6.601-1.799
		c0-0.381-0.051-0.746-0.15-1.096c-0.101-0.35-0.255-0.66-0.465-0.93s-0.48-0.48-0.811-0.631c-0.33-0.148-0.745-0.225-1.245-0.225
		c-0.739,0-1.454,0.141-2.145,0.42c-0.69,0.281-1.355,0.621-1.995,1.02l-1.26-2.309c0.819-0.52,1.734-0.971,2.745-1.35
		c1.01-0.381,2.104-0.57,3.285-0.57c1.859,0,3.239,0.545,4.14,1.635s1.35,2.664,1.35,4.725v8.73h-2.819l-0.271-1.621h-0.09
		c-0.66,0.561-1.365,1.031-2.115,1.41c-0.75,0.381-1.564,0.57-2.444,0.57c-1.301,0-2.355-0.395-3.165-1.186
		C188.322,67.545,187.917,66.5,187.917,65.199z M191.277,64.93c0,0.66,0.195,1.141,0.585,1.439c0.39,0.301,0.895,0.451,1.515,0.451
		c0.601,0,1.15-0.141,1.65-0.42c0.5-0.281,1.021-0.68,1.561-1.201V61.9c-1.001,0.119-1.841,0.279-2.521,0.479
		c-0.68,0.201-1.226,0.426-1.635,0.676c-0.41,0.25-0.705,0.535-0.885,0.855C191.367,64.23,191.277,64.57,191.277,64.93z"/>
	<path fill="#FFFFFF" d="M205.227,51.85c-0.62,0-1.13-0.18-1.529-0.539c-0.4-0.361-0.601-0.83-0.601-1.41s0.2-1.055,0.601-1.426
		c0.399-0.369,0.909-0.555,1.529-0.555s1.13,0.186,1.53,0.555c0.399,0.371,0.6,0.846,0.6,1.426s-0.2,1.049-0.6,1.41
		C206.356,51.67,205.847,51.85,205.227,51.85z M203.487,54.43h3.449v14.73h-3.449V54.43z"/>
	<path fill="#FFFFFF" d="M210.598,47.98h3.449v5.459l-0.09,2.461c0.62-0.541,1.295-0.98,2.025-1.32
		c0.729-0.34,1.475-0.51,2.234-0.51c0.92,0,1.74,0.174,2.46,0.523c0.721,0.352,1.33,0.852,1.83,1.5c0.5,0.65,0.88,1.436,1.141,2.355
		c0.26,0.92,0.39,1.951,0.39,3.09c0,1.26-0.175,2.385-0.524,3.375c-0.351,0.99-0.815,1.826-1.396,2.506s-1.25,1.199-2.01,1.561
		c-0.761,0.359-1.551,0.539-2.37,0.539c-0.681,0-1.365-0.16-2.055-0.48c-0.69-0.318-1.346-0.779-1.966-1.379h-0.09l-0.3,1.5h-2.729
		V47.98z M214.047,65.439c0.521,0.461,1.035,0.779,1.545,0.961c0.511,0.18,0.985,0.27,1.426,0.27c0.979,0,1.8-0.426,2.46-1.275
		s0.989-2.115,0.989-3.795c0-1.48-0.25-2.629-0.75-3.449s-1.31-1.23-2.43-1.23c-1.04,0-2.12,0.551-3.24,1.65V65.439z"/>
	<path fill="#FFFFFF" d="M225.776,65.199c0-1.58,0.69-2.799,2.07-3.66c1.38-0.859,3.58-1.459,6.601-1.799
		c0-0.381-0.051-0.746-0.15-1.096c-0.101-0.35-0.255-0.66-0.465-0.93s-0.48-0.48-0.811-0.631c-0.33-0.148-0.745-0.225-1.245-0.225
		c-0.739,0-1.454,0.141-2.145,0.42c-0.69,0.281-1.355,0.621-1.995,1.02l-1.26-2.309c0.819-0.52,1.734-0.971,2.745-1.35
		c1.01-0.381,2.104-0.57,3.285-0.57c1.859,0,3.239,0.545,4.14,1.635s1.35,2.664,1.35,4.725v8.73h-2.819l-0.271-1.621h-0.09
		c-0.66,0.561-1.365,1.031-2.115,1.41c-0.75,0.381-1.564,0.57-2.444,0.57c-1.301,0-2.355-0.395-3.165-1.186
		C226.182,67.545,225.776,66.5,225.776,65.199z M229.137,64.93c0,0.66,0.195,1.141,0.585,1.439c0.39,0.301,0.895,0.451,1.515,0.451
		c0.601,0,1.15-0.141,1.65-0.42c0.5-0.281,1.021-0.68,1.561-1.201V61.9c-1.001,0.119-1.841,0.279-2.521,0.479
		c-0.68,0.201-1.226,0.426-1.635,0.676c-0.41,0.25-0.705,0.535-0.885,0.855C229.227,64.23,229.137,64.57,229.137,64.93z"/>
	<path fill="#E1B04A" d="M256.547,63.119h-9.049v-6.24h9.049V47.52h6.447v9.359h9.048v6.24h-9.048v9.361h-6.447V63.119z"/>
</g>
</svg>
